+ filenameToUse=/home/horvathandras/vatic/vatic/public/videouploads/DJI_0061_30m_regi_disznoturas_jo_Homokmegy_2018.06.03._napos_kalaszos_T4.avi
+ filenameNoDot=DJI_0061_30m_regi_disznoturas_jo_Homokmegy_2018.06.03._napos_kalaszos_T4
+ FullUploadPath=/home/horvathandras/vatic/vatic/public/videouploads/DJI_0061_30m_regi_disznoturas_jo_Homokmegy_2018.06.03._napos_kalaszos_T4.avi
+ VideoDataDir=/home/horvathandras/vatic/vatic/videos
+ AvailableObjectTypes='PozitívROI NegatívROI Túrás ~Friss ~1-2Hetes ~Régebbi ~Egyéb1 ~Egyéb2 ~Egyéb3 Rágás ~Friss ~1-2Hetes ~Régebbi ~Egyéb1 ~Egyéb2 ~Egyéb3 Törés ~Friss ~1-2Hetes ~Régebbi ~Egyéb1 ~Egyéb2 ~Egyéb3 Taposás ~Friss ~1-2Hetes ~Régebbi ~Egyéb1 ~Egyéb2 ~Egyéb3 EgészségesNövény Egyéb1 Egyéb2 Egyéb3 Egyéb4 Egyéb5 Bizonytalan Művelőút Gktaposás Vetőhiba Széldöntés Jégkár Belvíz Aszály Erózió EgyszikűGyom KétszikűGyom EgyébNövvédelmiPR'
++ dirname /home/horvathandras/vatic/vatic/vatic_publisher.sh
+ cd /home/horvathandras/vatic/vatic
+ touch /home/horvathandras/vatic/vatic/public/videouploads/DJI_0061_30m_regi_disznoturas_jo_Homokmegy_2018.06.03._napos_kalaszos_T4.avi
+ chmod 744 /home/horvathandras/vatic/vatic/public/videouploads/DJI_0061_30m_regi_disznoturas_jo_Homokmegy_2018.06.03._napos_kalaszos_T4.avi
+ mkdir /home/horvathandras/vatic/vatic/videos/DJI_0061_30m_regi_disznoturas_jo_Homokmegy_2018.06.03._napos_kalaszos_T4
+ turkic extract /home/horvathandras/vatic/vatic/public/videouploads/DJI_0061_30m_regi_disznoturas_jo_Homokmegy_2018.06.03._napos_kalaszos_T4.avi /home/horvathandras/vatic/vatic/videos/DJI_0061_30m_regi_disznoturas_jo_Homokmegy_2018.06.03._napos_kalaszos_T4 --no-resize
ffmpeg version 2.8.14-0ubuntu0.16.04.1 Copyright (c) 2000-2018 the FFmpeg developers
  built with gcc 5.4.0 (Ubuntu 5.4.0-6ubuntu1~16.04.9) 20160609
  configuration: --prefix=/usr --extra-version=0ubuntu0.16.04.1 --build-suffix=-ffmpeg --toolchain=hardened --libdir=/usr/lib/x86_64-linux-gnu --incdir=/usr/include/x86_64-linux-gnu --cc=cc --cxx=g++ --enable-gpl --enable-shared --disable-stripping --disable-decoder=libopenjpeg --disable-decoder=libschroedinger --enable-avresample --enable-avisynth --enable-gnutls --enable-ladspa --enable-libass --enable-libbluray --enable-libbs2b --enable-libcaca --enable-libcdio --enable-libflite --enable-libfontconfig --enable-libfreetype --enable-libfribidi --enable-libgme --enable-libgsm --enable-libmodplug --enable-libmp3lame --enable-libopenjpeg --enable-libopus --enable-libpulse --enable-librtmp --enable-libschroedinger --enable-libshine --enable-libsnappy --enable-libsoxr --enable-libspeex --enable-libssh --enable-libtheora --enable-libtwolame --enable-libvorbis --enable-libvpx --enable-libwavpack --enable-libwebp --enable-libx265 --enable-libxvid --enable-libzvbi --enable-openal --enable-opengl --enable-x11grab --enable-libdc1394 --enable-libiec61883 --enable-libzmq --enable-frei0r --enable-libx264 --enable-libopencv
  libavutil      54. 31.100 / 54. 31.100
  libavcodec     56. 60.100 / 56. 60.100
  libavformat    56. 40.101 / 56. 40.101
  libavdevice    56.  4.100 / 56.  4.100
  libavfilter     5. 40.101 /  5. 40.101
  libavresample   2.  1.  0 /  2.  1.  0
  libswscale      3.  1.101 /  3.  1.101
  libswresample   1.  2.101 /  1.  2.101
  libpostproc    53.  3.100 / 53.  3.100
Input #0, mov,mp4,m4a,3gp,3g2,mj2, from '/home/horvathandras/vatic/vatic/public/videouploads/DJI_0061_30m_regi_disznoturas_jo_Homokmegy_2018.06.03._napos_kalaszos_T4.avi':
  Metadata:
    major_brand     : qt  
    minor_version   : 537986816
    compatible_brands: qt  
    creation_time   : 2018-06-03 08:54:45
    location        : +46.517530+19.172974+30.200
    location-{    : +46.517530+19.172974+30.200
    comment         : DE=None, Mode=P, DSW=0001
  Duration: 00:00:25.80, start: 0.000000, bitrate: 100488 kb/s
    Stream #0:0(eng): Video: h264 (High) (avc1 / 0x31637661), yuv420p(tv, bt709), 4096x2160 [SAR 1:1 DAR 256:135], 100332 kb/s, 50 fps, 50 tbr, 50k tbn, 100 tbc (default)
    Metadata:
      creation_time   : 2018-06-03 08:54:45
      handler_name    : DJI.AVC
      encoder         : AVC encoder
    Stream #0:1(eng): Data: none (priv / 0x76697270), 144 kb/s
    Metadata:
      creation_time   : 2018-06-03 08:54:45
      handler_name    : DJI.Meta
Please use -b:a or -b:v, -b is ambiguous
[swscaler @ 0xbfd500] deprecated pixel format used, make sure you did set range correctly
Output #0, image2, to '/tmp/pyvision-ffmpeg-913829902/%d.jpg':
  Metadata:
    major_brand     : qt  
    minor_version   : 537986816
    compatible_brands: qt  
    comment         : DE=None, Mode=P, DSW=0001
    location        : +46.517530+19.172974+30.200
    location-{    : +46.517530+19.172974+30.200
    encoder         : Lavf56.40.101
    Stream #0:0(eng): Video: mjpeg, yuvj420p(pc), 4096x2160 [SAR 1:1 DAR 256:135], q=2-31, 10000 kb/s, 50 fps, 50 tbn, 50 tbc (default)
    Metadata:
      creation_time   : 2018-06-03 08:54:45
      handler_name    : DJI.AVC
      encoder         : Lavc56.60.100 mjpeg
Stream mapping:
  Stream #0:0 -> #0:0 (h264 (native) -> mjpeg (native))
Press [q] to stop, [?] for help
frame=    1 fps=0.0 q=17.8 size=N/A time=00:00:00.02 bitrate=N/A    frame=    5 fps=3.5 q=24.8 size=N/A time=00:00:00.10 bitrate=N/A    frame=    9 fps=4.6 q=24.8 size=N/A time=00:00:00.18 bitrate=N/A    frame=   14 fps=5.4 q=24.8 size=N/A time=00:00:00.28 bitrate=N/A    frame=   19 fps=5.9 q=24.8 size=N/A time=00:00:00.38 bitrate=N/A    frame=   24 fps=6.3 q=24.8 size=N/A time=00:00:00.48 bitrate=N/A    frame=   29 fps=6.5 q=24.8 size=N/A time=00:00:00.58 bitrate=N/A    frame=   33 fps=6.6 q=24.8 size=N/A time=00:00:00.66 bitrate=N/A    frame=   37 fps=6.7 q=24.8 size=N/A time=00:00:00.74 bitrate=N/A    frame=   42 fps=6.8 q=24.8 size=N/A time=00:00:00.84 bitrate=N/A    frame=   47 fps=6.9 q=24.8 size=N/A time=00:00:00.94 bitrate=N/A    frame=   51 fps=7.0 q=24.8 size=N/A time=00:00:01.02 bitrate=N/A    frame=   56 fps=7.1 q=24.8 size=N/A time=00:00:01.12 bitrate=N/A    frame=   60 fps=7.1 q=24.8 size=N/A time=00:00:01.20 bitrate=N/A    frame=   65 fps=7.2 q=24.8 size=N/A time=00:00:01.30 bitrate=N/A    frame=   69 fps=7.2 q=24.8 size=N/A time=00:00:01.38 bitrate=N/A    frame=   73 fps=7.2 q=24.8 size=N/A time=00:00:01.46 bitrate=N/A    frame=   78 fps=7.3 q=24.8 size=N/A time=00:00:01.56 bitrate=N/A    frame=   83 fps=7.3 q=24.8 size=N/A time=00:00:01.66 bitrate=N/A    frame=   88 fps=7.4 q=24.8 size=N/A time=00:00:01.76 bitrate=N/A    frame=   92 fps=7.4 q=24.8 size=N/A time=00:00:01.84 bitrate=N/A    frame=   96 fps=7.4 q=24.8 size=N/A time=00:00:01.92 bitrate=N/A    frame=  100 fps=7.4 q=24.8 size=N/A time=00:00:02.00 bitrate=N/A    frame=  105 fps=7.4 q=24.8 size=N/A time=00:00:02.10 bitrate=N/A    frame=  109 fps=7.4 q=24.8 size=N/A time=00:00:02.18 bitrate=N/A    frame=  114 fps=7.5 q=24.8 size=N/A time=00:00:02.28 bitrate=N/A    frame=  118 fps=7.4 q=24.8 size=N/A time=00:00:02.36 bitrate=N/A    frame=  122 fps=7.4 q=24.8 size=N/A time=00:00:02.44 bitrate=N/A    frame=  127 fps=7.5 q=24.8 size=N/A time=00:00:02.54 bitrate=N/A    frame=  132 fps=7.5 q=24.8 size=N/A time=00:00:02.64 bitrate=N/A    frame=  136 fps=7.5 q=24.8 size=N/A time=00:00:02.72 bitrate=N/A    frame=  141 fps=7.5 q=24.8 size=N/A time=00:00:02.82 bitrate=N/A    frame=  146 fps=7.5 q=24.8 size=N/A time=00:00:02.92 bitrate=N/A    frame=  150 fps=7.5 q=24.8 size=N/A time=00:00:03.00 bitrate=N/A    frame=  154 fps=7.5 q=24.8 size=N/A time=00:00:03.08 bitrate=N/A    frame=  158 fps=7.5 q=24.8 size=N/A time=00:00:03.16 bitrate=N/A    frame=  162 fps=7.5 q=24.8 size=N/A time=00:00:03.24 bitrate=N/A    frame=  166 fps=7.6 q=24.8 size=N/A time=00:00:03.32 bitrate=N/A    frame=  170 fps=7.6 q=24.8 size=N/A time=00:00:03.40 bitrate=N/A    frame=  174 fps=7.6 q=24.8 size=N/A time=00:00:03.48 bitrate=N/A    frame=  179 fps=7.6 q=24.8 size=N/A time=00:00:03.58 bitrate=N/A    frame=  183 fps=7.6 q=24.8 size=N/A time=00:00:03.66 bitrate=N/A    frame=  187 fps=7.6 q=24.8 size=N/A time=00:00:03.74 bitrate=N/A    frame=  192 fps=7.6 q=24.8 size=N/A time=00:00:03.84 bitrate=N/A    frame=  197 fps=7.6 q=24.8 size=N/A time=00:00:03.94 bitrate=N/A    frame=  202 fps=7.6 q=24.8 size=N/A time=00:00:04.04 bitrate=N/A    frame=  207 fps=7.6 q=24.8 size=N/A time=00:00:04.14 bitrate=N/A    frame=  211 fps=7.6 q=24.8 size=N/A time=00:00:04.22 bitrate=N/A    frame=  215 fps=7.6 q=24.8 size=N/A time=00:00:04.30 bitrate=N/A    frame=  220 fps=7.6 q=24.8 size=N/A time=00:00:04.40 bitrate=N/A    frame=  225 fps=7.6 q=24.8 size=N/A time=00:00:04.50 bitrate=N/A    frame=  230 fps=7.7 q=24.8 size=N/A time=00:00:04.60 bitrate=N/A    frame=  235 fps=7.7 q=24.8 size=N/A time=00:00:04.70 bitrate=N/A    frame=  239 fps=7.7 q=24.8 size=N/A time=00:00:04.78 bitrate=N/A    frame=  244 fps=7.7 q=24.8 size=N/A time=00:00:04.88 bitrate=N/A    frame=  249 fps=7.7 q=24.8 size=N/A time=00:00:04.98 bitrate=N/A    frame=  254 fps=7.7 q=24.8 size=N/A time=00:00:05.08 bitrate=N/A    frame=  259 fps=7.7 q=24.8 size=N/A time=00:00:05.18 bitrate=N/A    frame=  264 fps=7.7 q=24.8 size=N/A time=00:00:05.28 bitrate=N/A    frame=  269 fps=7.7 q=24.8 size=N/A time=00:00:05.38 bitrate=N/A    frame=  273 fps=7.7 q=24.8 size=N/A time=00:00:05.46 bitrate=N/A    frame=  278 fps=7.7 q=24.8 size=N/A time=00:00:05.56 bitrate=N/A    frame=  283 fps=7.7 q=24.8 size=N/A time=00:00:05.66 bitrate=N/A    frame=  288 fps=7.7 q=24.8 size=N/A time=00:00:05.76 bitrate=N/A    frame=  293 fps=7.7 q=24.8 size=N/A time=00:00:05.86 bitrate=N/A    frame=  298 fps=7.7 q=24.8 size=N/A time=00:00:05.96 bitrate=N/A    frame=  302 fps=7.7 q=24.8 size=N/A time=00:00:06.04 bitrate=N/A    frame=  307 fps=7.7 q=24.8 size=N/A time=00:00:06.14 bitrate=N/A    frame=  312 fps=7.7 q=24.8 size=N/A time=00:00:06.24 bitrate=N/A    frame=  317 fps=7.7 q=24.8 size=N/A time=00:00:06.34 bitrate=N/A    frame=  322 fps=7.7 q=24.8 size=N/A time=00:00:06.44 bitrate=N/A    frame=  327 fps=7.8 q=24.8 size=N/A time=00:00:06.54 bitrate=N/A    frame=  332 fps=7.8 q=24.8 size=N/A time=00:00:06.64 bitrate=N/A    frame=  337 fps=7.8 q=24.8 size=N/A time=00:00:06.74 bitrate=N/A    frame=  342 fps=7.8 q=24.8 size=N/A time=00:00:06.84 bitrate=N/A    frame=  347 fps=7.8 q=24.8 size=N/A time=00:00:06.94 bitrate=N/A    frame=  351 fps=7.8 q=24.8 size=N/A time=00:00:07.02 bitrate=N/A    frame=  355 fps=7.8 q=24.8 size=N/A time=00:00:07.10 bitrate=N/A    frame=  360 fps=7.7 q=24.8 size=N/A time=00:00:07.20 bitrate=N/A    frame=  364 fps=7.8 q=24.8 size=N/A time=00:00:07.28 bitrate=N/A    frame=  368 fps=7.8 q=24.8 size=N/A time=00:00:07.36 bitrate=N/A    frame=  373 fps=7.8 q=24.8 size=N/A time=00:00:07.46 bitrate=N/A    frame=  378 fps=7.8 q=24.8 size=N/A time=00:00:07.56 bitrate=N/A    frame=  383 fps=7.8 q=24.8 size=N/A time=00:00:07.66 bitrate=N/A    frame=  388 fps=7.8 q=24.8 size=N/A time=00:00:07.76 bitrate=N/A    frame=  392 fps=7.8 q=24.8 size=N/A time=00:00:07.84 bitrate=N/A    frame=  396 fps=7.8 q=24.8 size=N/A time=00:00:07.92 bitrate=N/A    frame=  401 fps=7.8 q=24.8 size=N/A time=00:00:08.02 bitrate=N/A    frame=  406 fps=7.8 q=24.8 size=N/A time=00:00:08.12 bitrate=N/A    frame=  411 fps=7.8 q=24.8 size=N/A time=00:00:08.22 bitrate=N/A    frame=  416 fps=7.8 q=24.8 size=N/A time=00:00:08.32 bitrate=N/A    frame=  420 fps=7.8 q=24.8 size=N/A time=00:00:08.40 bitrate=N/A    frame=  425 fps=7.8 q=24.8 size=N/A time=00:00:08.50 bitrate=N/A    frame=  430 fps=7.8 q=24.8 size=N/A time=00:00:08.60 bitrate=N/A    frame=  435 fps=7.8 q=24.8 size=N/A time=00:00:08.70 bitrate=N/A    frame=  440 fps=7.8 q=24.8 size=N/A time=00:00:08.80 bitrate=N/A    frame=  444 fps=7.8 q=24.8 size=N/A time=00:00:08.88 bitrate=N/A    frame=  448 fps=7.8 q=24.8 size=N/A time=00:00:08.96 bitrate=N/A    frame=  452 fps=7.8 q=24.8 size=N/A time=00:00:09.04 bitrate=N/A    frame=  457 fps=7.8 q=24.8 size=N/A time=00:00:09.14 bitrate=N/A    frame=  462 fps=7.8 q=24.8 size=N/A time=00:00:09.24 bitrate=N/A    frame=  466 fps=7.8 q=24.8 size=N/A time=00:00:09.32 bitrate=N/A    frame=  471 fps=7.8 q=24.8 size=N/A time=00:00:09.42 bitrate=N/A    frame=  476 fps=7.8 q=24.8 size=N/A time=00:00:09.52 bitrate=N/A    frame=  480 fps=7.8 q=24.8 size=N/A time=00:00:09.60 bitrate=N/A    frame=  485 fps=7.8 q=24.8 size=N/A time=00:00:09.70 bitrate=N/A    frame=  490 fps=7.8 q=24.8 size=N/A time=00:00:09.80 bitrate=N/A    frame=  495 fps=7.8 q=24.8 size=N/A time=00:00:09.90 bitrate=N/A    frame=  500 fps=7.8 q=24.8 size=N/A time=00:00:10.00 bitrate=N/A    frame=  505 fps=7.8 q=24.8 size=N/A time=00:00:10.10 bitrate=N/A    frame=  510 fps=7.8 q=24.8 size=N/A time=00:00:10.20 bitrate=N/A    frame=  514 fps=7.8 q=24.8 size=N/A time=00:00:10.28 bitrate=N/A    frame=  518 fps=7.8 q=24.8 size=N/A time=00:00:10.36 bitrate=N/A    frame=  523 fps=7.8 q=24.8 size=N/A time=00:00:10.46 bitrate=N/A    frame=  528 fps=7.8 q=24.8 size=N/A time=00:00:10.56 bitrate=N/A    frame=  533 fps=7.8 q=24.8 size=N/A time=00:00:10.66 bitrate=N/A    frame=  538 fps=7.8 q=24.8 size=N/A time=00:00:10.76 bitrate=N/A    frame=  542 fps=7.8 q=24.8 size=N/A time=00:00:10.84 bitrate=N/A    frame=  547 fps=7.8 q=24.8 size=N/A time=00:00:10.94 bitrate=N/A    frame=  551 fps=7.8 q=24.8 size=N/A time=00:00:11.02 bitrate=N/A    frame=  556 fps=7.8 q=24.8 size=N/A time=00:00:11.12 bitrate=N/A    frame=  561 fps=7.8 q=24.8 size=N/A time=00:00:11.22 bitrate=N/A    frame=  566 fps=7.8 q=24.8 size=N/A time=00:00:11.32 bitrate=N/A    frame=  570 fps=7.8 q=24.8 size=N/A time=00:00:11.40 bitrate=N/A    frame=  575 fps=7.8 q=24.8 size=N/A time=00:00:11.50 bitrate=N/A    frame=  580 fps=7.8 q=24.8 size=N/A time=00:00:11.60 bitrate=N/A    frame=  585 fps=7.8 q=24.8 size=N/A time=00:00:11.70 bitrate=N/A    frame=  589 fps=7.8 q=24.8 size=N/A time=00:00:11.78 bitrate=N/A    frame=  594 fps=7.8 q=24.8 size=N/A time=00:00:11.88 bitrate=N/A    frame=  599 fps=7.8 q=24.8 size=N/A time=00:00:11.98 bitrate=N/A    frame=  604 fps=7.8 q=24.8 size=N/A time=00:00:12.08 bitrate=N/A    frame=  609 fps=7.8 q=24.8 size=N/A time=00:00:12.18 bitrate=N/A    frame=  614 fps=7.8 q=24.8 size=N/A time=00:00:12.28 bitrate=N/A    frame=  619 fps=7.8 q=24.8 size=N/A time=00:00:12.38 bitrate=N/A    frame=  624 fps=7.8 q=24.8 size=N/A time=00:00:12.48 bitrate=N/A    frame=  628 fps=7.8 q=24.8 size=N/A time=00:00:12.56 bitrate=N/A    frame=  632 fps=7.8 q=24.8 size=N/A time=00:00:12.64 bitrate=N/A    frame=  636 fps=7.8 q=24.8 size=N/A time=00:00:12.72 bitrate=N/A    frame=  641 fps=7.8 q=24.8 size=N/A time=00:00:12.82 bitrate=N/A    frame=  646 fps=7.8 q=24.8 size=N/A time=00:00:12.92 bitrate=N/A    frame=  651 fps=7.8 q=24.8 size=N/A time=00:00:13.02 bitrate=N/A    frame=  656 fps=7.8 q=24.8 size=N/A time=00:00:13.12 bitrate=N/A    frame=  660 fps=7.8 q=24.8 size=N/A time=00:00:13.20 bitrate=N/A    frame=  665 fps=7.8 q=24.8 size=N/A time=00:00:13.30 bitrate=N/A    frame=  670 fps=7.8 q=24.8 size=N/A time=00:00:13.40 bitrate=N/A    frame=  675 fps=7.8 q=24.8 size=N/A time=00:00:13.50 bitrate=N/A    frame=  680 fps=7.8 q=24.8 size=N/A time=00:00:13.60 bitrate=N/A    frame=  685 fps=7.8 q=24.8 size=N/A time=00:00:13.70 bitrate=N/A    frame=  689 fps=7.8 q=24.8 size=N/A time=00:00:13.78 bitrate=N/A    frame=  694 fps=7.8 q=24.8 size=N/A time=00:00:13.88 bitrate=N/A    frame=  699 fps=7.8 q=24.8 size=N/A time=00:00:13.98 bitrate=N/A    frame=  704 fps=7.8 q=24.8 size=N/A time=00:00:14.08 bitrate=N/A    frame=  709 fps=7.8 q=24.8 size=N/A time=00:00:14.18 bitrate=N/A    frame=  714 fps=7.8 q=24.8 size=N/A time=00:00:14.28 bitrate=N/A    frame=  719 fps=7.8 q=24.8 size=N/A time=00:00:14.38 bitrate=N/A    frame=  723 fps=7.8 q=24.8 size=N/A time=00:00:14.46 bitrate=N/A    frame=  727 fps=7.8 q=24.8 size=N/A time=00:00:14.54 bitrate=N/A    frame=  732 fps=7.8 q=24.8 size=N/A time=00:00:14.64 bitrate=N/A    frame=  737 fps=7.8 q=24.8 size=N/A time=00:00:14.74 bitrate=N/A    frame=  742 fps=7.8 q=24.8 size=N/A time=00:00:14.84 bitrate=N/A    frame=  747 fps=7.8 q=24.8 size=N/A time=00:00:14.94 bitrate=N/A    frame=  751 fps=7.8 q=24.8 size=N/A time=00:00:15.02 bitrate=N/A    frame=  755 fps=7.8 q=24.8 size=N/A time=00:00:15.10 bitrate=N/A    frame=  760 fps=7.8 q=24.8 size=N/A time=00:00:15.20 bitrate=N/A    frame=  765 fps=7.8 q=24.8 size=N/A time=00:00:15.30 bitrate=N/A    frame=  769 fps=7.8 q=24.8 size=N/A time=00:00:15.38 bitrate=N/A    frame=  773 fps=7.8 q=24.8 size=N/A time=00:00:15.46 bitrate=N/A    frame=  777 fps=7.8 q=24.8 size=N/A time=00:00:15.54 bitrate=N/A    frame=  781 fps=7.8 q=24.8 size=N/A time=00:00:15.62 bitrate=N/A    frame=  786 fps=7.8 q=24.8 size=N/A time=00:00:15.72 bitrate=N/A    frame=  791 fps=7.8 q=24.8 size=N/A time=00:00:15.82 bitrate=N/A    frame=  796 fps=7.8 q=24.8 size=N/A time=00:00:15.92 bitrate=N/A    frame=  801 fps=7.8 q=24.8 size=N/A time=00:00:16.02 bitrate=N/A    frame=  806 fps=7.8 q=24.8 size=N/A time=00:00:16.12 bitrate=N/A    frame=  810 fps=7.8 q=24.8 size=N/A time=00:00:16.20 bitrate=N/A    frame=  815 fps=7.8 q=24.8 size=N/A time=00:00:16.30 bitrate=N/A    frame=  820 fps=7.8 q=24.8 size=N/A time=00:00:16.40 bitrate=N/A    frame=  825 fps=7.8 q=24.8 size=N/A time=00:00:16.50 bitrate=N/A    frame=  830 fps=7.8 q=24.8 size=N/A time=00:00:16.60 bitrate=N/A    frame=  835 fps=7.8 q=24.8 size=N/A time=00:00:16.70 bitrate=N/A    frame=  839 fps=7.8 q=24.8 size=N/A time=00:00:16.78 bitrate=N/A    frame=  844 fps=7.8 q=24.8 size=N/A time=00:00:16.88 bitrate=N/A    frame=  849 fps=7.8 q=24.8 size=N/A time=00:00:16.98 bitrate=N/A    frame=  854 fps=7.8 q=24.8 size=N/A time=00:00:17.08 bitrate=N/A    frame=  859 fps=7.8 q=24.8 size=N/A time=00:00:17.18 bitrate=N/A    frame=  864 fps=7.8 q=24.8 size=N/A time=00:00:17.28 bitrate=N/A    frame=  869 fps=7.8 q=24.8 size=N/A time=00:00:17.38 bitrate=N/A    frame=  874 fps=7.8 q=24.8 size=N/A time=00:00:17.48 bitrate=N/A    frame=  879 fps=7.8 q=24.8 size=N/A time=00:00:17.58 bitrate=N/A    frame=  884 fps=7.8 q=24.8 size=N/A time=00:00:17.68 bitrate=N/A    frame=  889 fps=7.8 q=24.8 size=N/A time=00:00:17.78 bitrate=N/A    frame=  894 fps=7.8 q=24.8 size=N/A time=00:00:17.88 bitrate=N/A    frame=  899 fps=7.8 q=24.8 size=N/A time=00:00:17.98 bitrate=N/A    frame=  903 fps=7.8 q=24.8 size=N/A time=00:00:18.06 bitrate=N/A    frame=  908 fps=7.8 q=24.8 size=N/A time=00:00:18.16 bitrate=N/A    frame=  912 fps=7.8 q=24.8 size=N/A time=00:00:18.24 bitrate=N/A    frame=  917 fps=7.8 q=24.8 size=N/A time=00:00:18.34 bitrate=N/A    frame=  922 fps=7.8 q=24.8 size=N/A time=00:00:18.44 bitrate=N/A    frame=  927 fps=7.8 q=24.8 size=N/A time=00:00:18.54 bitrate=N/A    frame=  932 fps=7.8 q=24.8 size=N/A time=00:00:18.64 bitrate=N/A    frame=  937 fps=7.8 q=24.8 size=N/A time=00:00:18.74 bitrate=N/A    frame=  942 fps=7.8 q=24.8 size=N/A time=00:00:18.84 bitrate=N/A    frame=  947 fps=7.8 q=24.8 size=N/A time=00:00:18.94 bitrate=N/A    frame=  952 fps=7.8 q=24.8 size=N/A time=00:00:19.04 bitrate=N/A    frame=  957 fps=7.8 q=24.8 size=N/A time=00:00:19.14 bitrate=N/A    frame=  961 fps=7.8 q=24.8 size=N/A time=00:00:19.22 bitrate=N/A    frame=  966 fps=7.8 q=24.8 size=N/A time=00:00:19.32 bitrate=N/A    frame=  971 fps=7.8 q=24.8 size=N/A time=00:00:19.42 bitrate=N/A    frame=  976 fps=7.8 q=24.8 size=N/A time=00:00:19.52 bitrate=N/A    frame=  981 fps=7.8 q=24.8 size=N/A time=00:00:19.62 bitrate=N/A    frame=  986 fps=7.8 q=24.8 size=N/A time=00:00:19.72 bitrate=N/A    frame=  990 fps=7.8 q=24.8 size=N/A time=00:00:19.80 bitrate=N/A    frame=  995 fps=7.8 q=24.8 size=N/A time=00:00:19.90 bitrate=N/A    frame=  999 fps=7.8 q=24.8 size=N/A time=00:00:19.98 bitrate=N/A    frame= 1004 fps=7.8 q=24.8 size=N/A time=00:00:20.08 bitrate=N/A    frame= 1009 fps=7.8 q=24.8 size=N/A time=00:00:20.18 bitrate=N/A    frame= 1014 fps=7.8 q=24.8 size=N/A time=00:00:20.28 bitrate=N/A    frame= 1019 fps=7.8 q=24.8 size=N/A time=00:00:20.38 bitrate=N/A    frame= 1023 fps=7.8 q=24.8 size=N/A time=00:00:20.46 bitrate=N/A    frame= 1028 fps=7.8 q=24.8 size=N/A time=00:00:20.56 bitrate=N/A    frame= 1033 fps=7.8 q=24.8 size=N/A time=00:00:20.66 bitrate=N/A    frame= 1038 fps=7.8 q=24.8 size=N/A time=00:00:20.76 bitrate=N/A    frame= 1043 fps=7.9 q=24.8 size=N/A time=00:00:20.86 bitrate=N/A    frame= 1048 fps=7.9 q=24.8 size=N/A time=00:00:20.96 bitrate=N/A    frame= 1052 fps=7.8 q=24.8 size=N/A time=00:00:21.04 bitrate=N/A    frame= 1056 fps=7.8 q=24.8 size=N/A time=00:00:21.12 bitrate=N/A    frame= 1061 fps=7.9 q=24.8 size=N/A time=00:00:21.22 bitrate=N/A    frame= 1066 fps=7.9 q=24.8 size=N/A time=00:00:21.32 bitrate=N/A    frame= 1071 fps=7.9 q=24.8 size=N/A time=00:00:21.42 bitrate=N/A    frame= 1075 fps=7.8 q=24.8 size=N/A time=00:00:21.50 bitrate=N/A    frame= 1079 fps=7.8 q=24.8 size=N/A time=00:00:21.58 bitrate=N/A    frame= 1083 fps=7.8 q=24.8 size=N/A time=00:00:21.66 bitrate=N/A    frame= 1088 fps=7.8 q=24.8 size=N/A time=00:00:21.76 bitrate=N/A    frame= 1093 fps=7.8 q=24.8 size=N/A time=00:00:21.86 bitrate=N/A    frame= 1098 fps=7.8 q=24.8 size=N/A time=00:00:21.96 bitrate=N/A    frame= 1103 fps=7.8 q=24.8 size=N/A time=00:00:22.06 bitrate=N/A    frame= 1108 fps=7.8 q=24.8 size=N/A time=00:00:22.16 bitrate=N/A    frame= 1112 fps=7.8 q=24.8 size=N/A time=00:00:22.24 bitrate=N/A    frame= 1117 fps=7.8 q=24.8 size=N/A time=00:00:22.34 bitrate=N/A    frame= 1122 fps=7.8 q=24.8 size=N/A time=00:00:22.44 bitrate=N/A    frame= 1127 fps=7.8 q=24.8 size=N/A time=00:00:22.54 bitrate=N/A    frame= 1132 fps=7.8 q=24.8 size=N/A time=00:00:22.64 bitrate=N/A    frame= 1137 fps=7.9 q=24.8 size=N/A time=00:00:22.74 bitrate=N/A    frame= 1141 fps=7.8 q=24.8 size=N/A time=00:00:22.82 bitrate=N/A    frame= 1146 fps=7.8 q=24.8 size=N/A time=00:00:22.92 bitrate=N/A    frame= 1151 fps=7.9 q=24.8 size=N/A time=00:00:23.02 bitrate=N/A    frame= 1156 fps=7.9 q=24.8 size=N/A time=00:00:23.12 bitrate=N/A    frame= 1161 fps=7.9 q=24.8 size=N/A time=00:00:23.22 bitrate=N/A    frame= 1166 fps=7.9 q=24.8 size=N/A time=00:00:23.32 bitrate=N/A    frame= 1170 fps=7.9 q=24.8 size=N/A time=00:00:23.40 bitrate=N/A    frame= 1175 fps=7.9 q=24.8 size=N/A time=00:00:23.50 bitrate=N/A    frame= 1180 fps=7.9 q=24.8 size=N/A time=00:00:23.60 bitrate=N/A    frame= 1185 fps=7.9 q=24.8 size=N/A time=00:00:23.70 bitrate=N/A    frame= 1190 fps=7.9 q=24.8 size=N/A time=00:00:23.80 bitrate=N/A    frame= 1195 fps=7.9 q=24.8 size=N/A time=00:00:23.90 bitrate=N/A    frame= 1199 fps=7.9 q=24.8 size=N/A time=00:00:23.98 bitrate=N/A    frame= 1203 fps=7.9 q=24.8 size=N/A time=00:00:24.06 bitrate=N/A    frame= 1208 fps=7.9 q=24.8 size=N/A time=00:00:24.16 bitrate=N/A    frame= 1213 fps=7.9 q=24.8 size=N/A time=00:00:24.26 bitrate=N/A    frame= 1217 fps=7.9 q=24.8 size=N/A time=00:00:24.34 bitrate=N/A    frame= 1222 fps=7.9 q=24.8 size=N/A time=00:00:24.44 bitrate=N/A    frame= 1227 fps=7.9 q=24.8 size=N/A time=00:00:24.54 bitrate=N/A    frame= 1231 fps=7.9 q=24.8 size=N/A time=00:00:24.62 bitrate=N/A    frame= 1236 fps=7.9 q=24.8 size=N/A time=00:00:24.72 bitrate=N/A    frame= 1241 fps=7.9 q=24.8 size=N/A time=00:00:24.82 bitrate=N/A    frame= 1246 fps=7.9 q=24.8 size=N/A time=00:00:24.92 bitrate=N/A    frame= 1251 fps=7.9 q=24.8 size=N/A time=00:00:25.02 bitrate=N/A    frame= 1256 fps=7.9 q=24.8 size=N/A time=00:00:25.12 bitrate=N/A    frame= 1260 fps=7.9 q=24.8 size=N/A time=00:00:25.20 bitrate=N/A    frame= 1265 fps=7.9 q=24.8 size=N/A time=00:00:25.30 bitrate=N/A    frame= 1270 fps=7.9 q=24.8 size=N/A time=00:00:25.40 bitrate=N/A    frame= 1275 fps=7.9 q=24.8 size=N/A time=00:00:25.50 bitrate=N/A    frame= 1280 fps=7.9 q=24.8 size=N/A time=00:00:25.60 bitrate=N/A    frame= 1285 fps=7.9 q=24.8 size=N/A time=00:00:25.70 bitrate=N/A    frame= 1290 fps=7.9 q=24.8 size=N/A time=00:00:25.80 bitrate=N/A    frame= 1290 fps=7.9 q=24.8 Lsize=N/A time=00:00:25.80 bitrate=N/A    
video:1187750kB audio:0kB subtitle:0kB other streams:0kB global headers:0kB muxing overhead: unknown
+ turkic load DJI_0061_30m_regi_disznoturas_jo_Homokmegy_2018.06.03._napos_kalaszos_T4 /home/horvathandras/vatic/vatic/videos/DJI_0061_30m_regi_disznoturas_jo_Homokmegy_2018.06.03._napos_kalaszos_T4 $'Pozit\303\255vROI' $'Negat\303\255vROI' $'T\303\272r\303\241s' '~Friss' '~1-2Hetes' '~Régebbi' '~Egyéb1' '~Egyéb2' '~Egyéb3' $'R\303\241g\303\241s' '~Friss' '~1-2Hetes' '~Régebbi' '~Egyéb1' '~Egyéb2' '~Egyéb3' $'T\303\266r\303\251s' '~Friss' '~1-2Hetes' '~Régebbi' '~Egyéb1' '~Egyéb2' '~Egyéb3' $'Tapos\303\241s' '~Friss' '~1-2Hetes' '~Régebbi' '~Egyéb1' '~Egyéb2' '~Egyéb3' $'Eg\303\251szs\303\251gesN\303\266v\303\251ny' $'Egy\303\251b1' $'Egy\303\251b2' $'Egy\303\251b3' $'Egy\303\251b4' $'Egy\303\251b5' Bizonytalan $'M\305\261vel\305\221\303\272t' $'Gktapos\303\241s' $'Vet\305\221hiba' $'Sz\303\251ld\303\266nt\303\251s' $'J\303\251gk\303\241r' $'Belv\303\255z' $'Asz\303\241ly' $'Er\303\263zi\303\263' $'Egyszik\305\261Gyom' $'K\303\251tszik\305\261Gyom' $'Egy\303\251bN\303\266vv\303\251delmiPR' --offline --title '$filenameNoDot Video' --length 1000 --description 'vatic annotation'
+ turkic publish --offline
+ mkdir /home/horvathandras/vatic/vatic/public/videothumbnails/DJI_0061_30m_regi_disznoturas_jo_Homokmegy_2018.06.03._napos_kalaszos_T4
+ cp /home/horvathandras/vatic/vatic/videos/DJI_0061_30m_regi_disznoturas_jo_Homokmegy_2018.06.03._napos_kalaszos_T4/0/0/31.jpg /home/horvathandras/vatic/vatic/public/videothumbnails/DJI_0061_30m_regi_disznoturas_jo_Homokmegy_2018.06.03._napos_kalaszos_T4/thumb.jpg
